<mxfile host="Electron" modified="2023-05-10T05:42:48.690Z" agent="Mozilla/5.0 (Macintosh; Intel Mac OS X 10_15_7) AppleWebKit/537.36 (KHTML, like Gecko) draw.io/21.1.2 Chrome/106.0.5249.199 Electron/21.4.3 Safari/537.36" etag="isOl3Acbw7TBux37h52u" version="21.1.2" type="device">
  <diagram name="페이지-1" id="CRLgeQEgEjseHPpmCWUn">
    <mxGraphModel dx="984" dy="1916" grid="1" gridSize="10" guides="1" tooltips="1" connect="1" arrows="1" fold="1" page="1" pageScale="1" pageWidth="827" pageHeight="1169" math="0" shadow="0">
      <root>
        <mxCell id="0" />
        <mxCell id="1" parent="0" />
        <object label="NormalUser" id="Bi_bp-SSH6XVWLjxZuOe-5">
          <mxCell style="shape=umlActor;verticalLabelPosition=bottom;verticalAlign=top;html=1;" vertex="1" parent="1">
            <mxGeometry x="130" y="-300" width="30" height="60" as="geometry" />
          </mxCell>
        </object>
        <mxCell id="Bi_bp-SSH6XVWLjxZuOe-10" value=":CheckApplyInfo" style="html=1;whiteSpace=wrap;" vertex="1" parent="1">
          <mxGeometry x="470" y="-280" width="110" height="50" as="geometry" />
        </mxCell>
        <mxCell id="Bi_bp-SSH6XVWLjxZuOe-11" value=":CheckApplyInfoUI" style="html=1;whiteSpace=wrap;" vertex="1" parent="1">
          <mxGeometry x="270" y="-280" width="110" height="50" as="geometry" />
        </mxCell>
        <mxCell id="Bi_bp-SSH6XVWLjxZuOe-12" value=":ApplyInfo" style="html=1;whiteSpace=wrap;" vertex="1" parent="1">
          <mxGeometry x="480" y="-130" width="110" height="50" as="geometry" />
        </mxCell>
        <mxCell id="Bi_bp-SSH6XVWLjxZuOe-13" value="" style="line;strokeWidth=1;fillColor=none;align=left;verticalAlign=middle;spacingTop=-1;spacingLeft=3;spacingRight=3;rotatable=0;labelPosition=right;points=[];portConstraint=eastwest;strokeColor=inherit;" vertex="1" parent="1">
          <mxGeometry x="150" y="-270" width="120" height="8" as="geometry" />
        </mxCell>
        <mxCell id="Bi_bp-SSH6XVWLjxZuOe-14" value="" style="line;strokeWidth=1;fillColor=none;align=left;verticalAlign=middle;spacingTop=-1;spacingLeft=3;spacingRight=3;rotatable=0;labelPosition=right;points=[];portConstraint=eastwest;strokeColor=inherit;" vertex="1" parent="1">
          <mxGeometry x="380" y="-259" width="90" height="8" as="geometry" />
        </mxCell>
        <mxCell id="Bi_bp-SSH6XVWLjxZuOe-17" value="" style="endArrow=none;html=1;rounded=0;entryX=0.5;entryY=1;entryDx=0;entryDy=0;exitX=0.409;exitY=0;exitDx=0;exitDy=0;exitPerimeter=0;" edge="1" parent="1" source="Bi_bp-SSH6XVWLjxZuOe-12" target="Bi_bp-SSH6XVWLjxZuOe-10">
          <mxGeometry width="50" height="50" relative="1" as="geometry">
            <mxPoint x="380" y="-30" as="sourcePoint" />
            <mxPoint x="430" y="-80" as="targetPoint" />
          </mxGeometry>
        </mxCell>
        <object label="`" id="Bi_bp-SSH6XVWLjxZuOe-25">
          <mxCell style="shape=umlActor;verticalLabelPosition=bottom;verticalAlign=top;html=1;" vertex="1" parent="1">
            <mxGeometry x="130" width="30" height="60" as="geometry" />
          </mxCell>
        </object>
        <mxCell id="Bi_bp-SSH6XVWLjxZuOe-26" value=":CancelApply" style="html=1;whiteSpace=wrap;" vertex="1" parent="1">
          <mxGeometry x="470" y="20" width="110" height="50" as="geometry" />
        </mxCell>
        <mxCell id="Bi_bp-SSH6XVWLjxZuOe-27" value=":CancelApplyUI" style="html=1;whiteSpace=wrap;" vertex="1" parent="1">
          <mxGeometry x="270" y="20" width="110" height="50" as="geometry" />
        </mxCell>
        <mxCell id="Bi_bp-SSH6XVWLjxZuOe-28" value=":ApplyInfo" style="html=1;whiteSpace=wrap;" vertex="1" parent="1">
          <mxGeometry x="480" y="170" width="110" height="50" as="geometry" />
        </mxCell>
        <mxCell id="Bi_bp-SSH6XVWLjxZuOe-29" value="" style="line;strokeWidth=1;fillColor=none;align=left;verticalAlign=middle;spacingTop=-1;spacingLeft=3;spacingRight=3;rotatable=0;labelPosition=right;points=[];portConstraint=eastwest;strokeColor=inherit;" vertex="1" parent="1">
          <mxGeometry x="150" y="30" width="120" height="8" as="geometry" />
        </mxCell>
        <mxCell id="Bi_bp-SSH6XVWLjxZuOe-30" value="" style="line;strokeWidth=1;fillColor=none;align=left;verticalAlign=middle;spacingTop=-1;spacingLeft=3;spacingRight=3;rotatable=0;labelPosition=right;points=[];portConstraint=eastwest;strokeColor=inherit;" vertex="1" parent="1">
          <mxGeometry x="380" y="41" width="90" height="8" as="geometry" />
        </mxCell>
        <mxCell id="Bi_bp-SSH6XVWLjxZuOe-31" value="" style="endArrow=none;html=1;rounded=0;entryX=0.5;entryY=1;entryDx=0;entryDy=0;exitX=0.409;exitY=0;exitDx=0;exitDy=0;exitPerimeter=0;" edge="1" parent="1" source="Bi_bp-SSH6XVWLjxZuOe-28" target="Bi_bp-SSH6XVWLjxZuOe-26">
          <mxGeometry width="50" height="50" relative="1" as="geometry">
            <mxPoint x="380" y="270" as="sourcePoint" />
            <mxPoint x="430" y="220" as="targetPoint" />
          </mxGeometry>
        </mxCell>
        <object label="NormalUser" id="Bi_bp-SSH6XVWLjxZuOe-39">
          <mxCell style="shape=umlActor;verticalLabelPosition=bottom;verticalAlign=top;html=1;" vertex="1" parent="1">
            <mxGeometry x="150" y="580" width="30" height="60" as="geometry" />
          </mxCell>
        </object>
        <mxCell id="Bi_bp-SSH6XVWLjxZuOe-40" value=":ApplyInfoStat" style="html=1;whiteSpace=wrap;" vertex="1" parent="1">
          <mxGeometry x="490" y="600" width="110" height="50" as="geometry" />
        </mxCell>
        <mxCell id="Bi_bp-SSH6XVWLjxZuOe-41" value=":ApplyInfoStatUI" style="html=1;whiteSpace=wrap;" vertex="1" parent="1">
          <mxGeometry x="290" y="600" width="110" height="50" as="geometry" />
        </mxCell>
        <mxCell id="Bi_bp-SSH6XVWLjxZuOe-42" value=":ApplyInfo" style="html=1;whiteSpace=wrap;" vertex="1" parent="1">
          <mxGeometry x="500" y="750" width="110" height="50" as="geometry" />
        </mxCell>
        <mxCell id="Bi_bp-SSH6XVWLjxZuOe-43" value="" style="line;strokeWidth=1;fillColor=none;align=left;verticalAlign=middle;spacingTop=-1;spacingLeft=3;spacingRight=3;rotatable=0;labelPosition=right;points=[];portConstraint=eastwest;strokeColor=inherit;" vertex="1" parent="1">
          <mxGeometry x="170" y="610" width="120" height="8" as="geometry" />
        </mxCell>
        <mxCell id="Bi_bp-SSH6XVWLjxZuOe-44" value="" style="line;strokeWidth=1;fillColor=none;align=left;verticalAlign=middle;spacingTop=-1;spacingLeft=3;spacingRight=3;rotatable=0;labelPosition=right;points=[];portConstraint=eastwest;strokeColor=inherit;" vertex="1" parent="1">
          <mxGeometry x="400" y="621" width="90" height="8" as="geometry" />
        </mxCell>
        <mxCell id="Bi_bp-SSH6XVWLjxZuOe-45" value="" style="endArrow=none;html=1;rounded=0;entryX=0.5;entryY=1;entryDx=0;entryDy=0;exitX=0.409;exitY=0;exitDx=0;exitDy=0;exitPerimeter=0;" edge="1" parent="1" source="Bi_bp-SSH6XVWLjxZuOe-42" target="Bi_bp-SSH6XVWLjxZuOe-40">
          <mxGeometry width="50" height="50" relative="1" as="geometry">
            <mxPoint x="400" y="850" as="sourcePoint" />
            <mxPoint x="450" y="800" as="targetPoint" />
          </mxGeometry>
        </mxCell>
        <object label="CompanyUser" id="Bi_bp-SSH6XVWLjxZuOe-46">
          <mxCell style="shape=umlActor;verticalLabelPosition=bottom;verticalAlign=top;html=1;" vertex="1" parent="1">
            <mxGeometry x="150" y="890" width="30" height="60" as="geometry" />
          </mxCell>
        </object>
        <mxCell id="Bi_bp-SSH6XVWLjxZuOe-47" value=":ApplyInfoStat" style="html=1;whiteSpace=wrap;" vertex="1" parent="1">
          <mxGeometry x="490" y="910" width="110" height="50" as="geometry" />
        </mxCell>
        <mxCell id="Bi_bp-SSH6XVWLjxZuOe-48" value=":ApplyInfoStatUI" style="html=1;whiteSpace=wrap;" vertex="1" parent="1">
          <mxGeometry x="290" y="910" width="110" height="50" as="geometry" />
        </mxCell>
        <mxCell id="Bi_bp-SSH6XVWLjxZuOe-49" value=":ApplyInfo" style="html=1;whiteSpace=wrap;" vertex="1" parent="1">
          <mxGeometry x="500" y="1060" width="110" height="50" as="geometry" />
        </mxCell>
        <mxCell id="Bi_bp-SSH6XVWLjxZuOe-50" value="" style="line;strokeWidth=1;fillColor=none;align=left;verticalAlign=middle;spacingTop=-1;spacingLeft=3;spacingRight=3;rotatable=0;labelPosition=right;points=[];portConstraint=eastwest;strokeColor=inherit;" vertex="1" parent="1">
          <mxGeometry x="170" y="920" width="120" height="8" as="geometry" />
        </mxCell>
        <mxCell id="Bi_bp-SSH6XVWLjxZuOe-51" value="" style="line;strokeWidth=1;fillColor=none;align=left;verticalAlign=middle;spacingTop=-1;spacingLeft=3;spacingRight=3;rotatable=0;labelPosition=right;points=[];portConstraint=eastwest;strokeColor=inherit;" vertex="1" parent="1">
          <mxGeometry x="400" y="931" width="90" height="8" as="geometry" />
        </mxCell>
        <mxCell id="Bi_bp-SSH6XVWLjxZuOe-52" value="" style="endArrow=none;html=1;rounded=0;entryX=0.5;entryY=1;entryDx=0;entryDy=0;exitX=0.409;exitY=0;exitDx=0;exitDy=0;exitPerimeter=0;" edge="1" parent="1" source="Bi_bp-SSH6XVWLjxZuOe-49" target="Bi_bp-SSH6XVWLjxZuOe-47">
          <mxGeometry width="50" height="50" relative="1" as="geometry">
            <mxPoint x="400" y="1160" as="sourcePoint" />
            <mxPoint x="450" y="1110" as="targetPoint" />
          </mxGeometry>
        </mxCell>
        <mxCell id="Bi_bp-SSH6XVWLjxZuOe-55" value="2: accessApplyInfo()" style="html=1;verticalAlign=bottom;endArrow=block;edgeStyle=elbowEdgeStyle;elbow=horizontal;curved=0;rounded=0;" edge="1" parent="1">
          <mxGeometry width="80" relative="1" as="geometry">
            <mxPoint x="180" y="-281" as="sourcePoint" />
            <mxPoint x="260" y="-281" as="targetPoint" />
            <mxPoint as="offset" />
          </mxGeometry>
        </mxCell>
        <mxCell id="Bi_bp-SSH6XVWLjxZuOe-58" value="1: startInterface()" style="html=1;verticalAlign=bottom;endArrow=block;edgeStyle=elbowEdgeStyle;elbow=vertical;curved=0;rounded=0;" edge="1" parent="1">
          <mxGeometry width="80" relative="1" as="geometry">
            <mxPoint x="470" y="-220" as="sourcePoint" />
            <mxPoint x="387.5" y="-220" as="targetPoint" />
          </mxGeometry>
        </mxCell>
        <mxCell id="Bi_bp-SSH6XVWLjxZuOe-68" value="" style="endArrow=classic;html=1;rounded=0;" edge="1" parent="1">
          <mxGeometry width="50" height="50" relative="1" as="geometry">
            <mxPoint x="500" y="-220" as="sourcePoint" />
            <mxPoint x="500" y="-140" as="targetPoint" />
          </mxGeometry>
        </mxCell>
        <mxCell id="Bi_bp-SSH6XVWLjxZuOe-69" value="2.1.1: getApplyInfo()" style="text;html=1;align=center;verticalAlign=middle;resizable=0;points=[];autosize=1;strokeColor=none;fillColor=none;" vertex="1" parent="1">
          <mxGeometry x="375" y="-195" width="130" height="30" as="geometry" />
        </mxCell>
        <mxCell id="Bi_bp-SSH6XVWLjxZuOe-71" value="" style="html=1;verticalAlign=bottom;endArrow=block;edgeStyle=elbowEdgeStyle;elbow=horizontal;curved=0;rounded=0;" edge="1" parent="1">
          <mxGeometry x="-0.6721" y="20" width="80" relative="1" as="geometry">
            <mxPoint x="400" y="-270" as="sourcePoint" />
            <mxPoint x="460" y="-270" as="targetPoint" />
            <Array as="points">
              <mxPoint x="450" y="-271" />
            </Array>
            <mxPoint as="offset" />
          </mxGeometry>
        </mxCell>
        <mxCell id="Bi_bp-SSH6XVWLjxZuOe-72" value="2.1: showApplyInfo()" style="text;html=1;align=center;verticalAlign=middle;resizable=0;points=[];autosize=1;strokeColor=none;fillColor=none;" vertex="1" parent="1">
          <mxGeometry x="355" y="-305" width="130" height="30" as="geometry" />
        </mxCell>
        <mxCell id="Bi_bp-SSH6XVWLjxZuOe-73" value="2: accessApplyInfo()&lt;br&gt;3: selectApplyInfo()" style="html=1;verticalAlign=bottom;endArrow=block;edgeStyle=elbowEdgeStyle;elbow=vertical;curved=0;rounded=0;" edge="1" parent="1">
          <mxGeometry width="80" relative="1" as="geometry">
            <mxPoint x="170" y="19" as="sourcePoint" />
            <mxPoint x="250" y="19" as="targetPoint" />
          </mxGeometry>
        </mxCell>
        <mxCell id="Bi_bp-SSH6XVWLjxZuOe-74" value="2.1: showApplyInfo()&lt;br&gt;3.1: delApplyInfo()" style="html=1;verticalAlign=bottom;endArrow=block;edgeStyle=elbowEdgeStyle;elbow=horizontal;curved=0;rounded=0;" edge="1" parent="1">
          <mxGeometry width="80" relative="1" as="geometry">
            <mxPoint x="390" y="20" as="sourcePoint" />
            <mxPoint x="460" y="20" as="targetPoint" />
          </mxGeometry>
        </mxCell>
        <mxCell id="Bi_bp-SSH6XVWLjxZuOe-75" value="1: startInterface()" style="html=1;verticalAlign=bottom;endArrow=block;edgeStyle=elbowEdgeStyle;elbow=vertical;curved=0;rounded=0;" edge="1" parent="1">
          <mxGeometry width="80" relative="1" as="geometry">
            <mxPoint x="465" y="80" as="sourcePoint" />
            <mxPoint x="385" y="80" as="targetPoint" />
          </mxGeometry>
        </mxCell>
        <mxCell id="Bi_bp-SSH6XVWLjxZuOe-76" value="2.1.1: getApplyInfo()&lt;br&gt;3.1.1: dellnfo()" style="text;html=1;align=center;verticalAlign=middle;resizable=0;points=[];autosize=1;strokeColor=none;fillColor=none;" vertex="1" parent="1">
          <mxGeometry x="360" y="115" width="130" height="40" as="geometry" />
        </mxCell>
        <mxCell id="Bi_bp-SSH6XVWLjxZuOe-81" value="" style="endArrow=classic;html=1;rounded=0;" edge="1" parent="1">
          <mxGeometry width="50" height="50" relative="1" as="geometry">
            <mxPoint x="490" y="80" as="sourcePoint" />
            <mxPoint x="490" y="160" as="targetPoint" />
          </mxGeometry>
        </mxCell>
        <object label="Normal User" id="Bi_bp-SSH6XVWLjxZuOe-82">
          <mxCell style="shape=umlActor;verticalLabelPosition=bottom;verticalAlign=top;html=1;" vertex="1" parent="1">
            <mxGeometry x="140" y="290" width="30" height="60" as="geometry" />
          </mxCell>
        </object>
        <mxCell id="Bi_bp-SSH6XVWLjxZuOe-83" value=":DelApply" style="html=1;whiteSpace=wrap;" vertex="1" parent="1">
          <mxGeometry x="480" y="310" width="110" height="50" as="geometry" />
        </mxCell>
        <mxCell id="Bi_bp-SSH6XVWLjxZuOe-84" value=":DelApplyUI" style="html=1;whiteSpace=wrap;" vertex="1" parent="1">
          <mxGeometry x="280" y="310" width="110" height="50" as="geometry" />
        </mxCell>
        <mxCell id="Bi_bp-SSH6XVWLjxZuOe-85" value=":ApplyInfo" style="html=1;whiteSpace=wrap;" vertex="1" parent="1">
          <mxGeometry x="490" y="460" width="110" height="50" as="geometry" />
        </mxCell>
        <mxCell id="Bi_bp-SSH6XVWLjxZuOe-86" value="" style="line;strokeWidth=1;fillColor=none;align=left;verticalAlign=middle;spacingTop=-1;spacingLeft=3;spacingRight=3;rotatable=0;labelPosition=right;points=[];portConstraint=eastwest;strokeColor=inherit;" vertex="1" parent="1">
          <mxGeometry x="160" y="320" width="120" height="8" as="geometry" />
        </mxCell>
        <mxCell id="Bi_bp-SSH6XVWLjxZuOe-87" value="" style="line;strokeWidth=1;fillColor=none;align=left;verticalAlign=middle;spacingTop=-1;spacingLeft=3;spacingRight=3;rotatable=0;labelPosition=right;points=[];portConstraint=eastwest;strokeColor=inherit;" vertex="1" parent="1">
          <mxGeometry x="390" y="331" width="90" height="8" as="geometry" />
        </mxCell>
        <mxCell id="Bi_bp-SSH6XVWLjxZuOe-88" value="" style="endArrow=none;html=1;rounded=0;entryX=0.5;entryY=1;entryDx=0;entryDy=0;exitX=0.409;exitY=0;exitDx=0;exitDy=0;exitPerimeter=0;" edge="1" parent="1" source="Bi_bp-SSH6XVWLjxZuOe-85" target="Bi_bp-SSH6XVWLjxZuOe-83">
          <mxGeometry width="50" height="50" relative="1" as="geometry">
            <mxPoint x="390" y="560" as="sourcePoint" />
            <mxPoint x="440" y="510" as="targetPoint" />
          </mxGeometry>
        </mxCell>
        <mxCell id="Bi_bp-SSH6XVWLjxZuOe-89" value="2: accessApplyInfo()&lt;br&gt;3: selectApplyInfo()" style="html=1;verticalAlign=bottom;endArrow=block;edgeStyle=elbowEdgeStyle;elbow=vertical;curved=0;rounded=0;" edge="1" parent="1">
          <mxGeometry width="80" relative="1" as="geometry">
            <mxPoint x="180" y="309" as="sourcePoint" />
            <mxPoint x="260" y="309" as="targetPoint" />
          </mxGeometry>
        </mxCell>
        <mxCell id="Bi_bp-SSH6XVWLjxZuOe-90" value="2.1: showApplyInfo()&lt;br&gt;3.1: delApplyInfo()" style="html=1;verticalAlign=bottom;endArrow=block;edgeStyle=elbowEdgeStyle;elbow=horizontal;curved=0;rounded=0;" edge="1" parent="1">
          <mxGeometry width="80" relative="1" as="geometry">
            <mxPoint x="400" y="310" as="sourcePoint" />
            <mxPoint x="470" y="310" as="targetPoint" />
          </mxGeometry>
        </mxCell>
        <mxCell id="Bi_bp-SSH6XVWLjxZuOe-91" value="1: startInterface()" style="html=1;verticalAlign=bottom;endArrow=block;edgeStyle=elbowEdgeStyle;elbow=vertical;curved=0;rounded=0;" edge="1" parent="1">
          <mxGeometry width="80" relative="1" as="geometry">
            <mxPoint x="475" y="370" as="sourcePoint" />
            <mxPoint x="395" y="370" as="targetPoint" />
          </mxGeometry>
        </mxCell>
        <mxCell id="Bi_bp-SSH6XVWLjxZuOe-92" value="2.1.1: getApplyInfo()&lt;br&gt;3.1.1: dellnfo()" style="text;html=1;align=center;verticalAlign=middle;resizable=0;points=[];autosize=1;strokeColor=none;fillColor=none;" vertex="1" parent="1">
          <mxGeometry x="370" y="405" width="130" height="40" as="geometry" />
        </mxCell>
        <mxCell id="Bi_bp-SSH6XVWLjxZuOe-93" value="" style="endArrow=classic;html=1;rounded=0;" edge="1" parent="1">
          <mxGeometry width="50" height="50" relative="1" as="geometry">
            <mxPoint x="500" y="370" as="sourcePoint" />
            <mxPoint x="500" y="450" as="targetPoint" />
          </mxGeometry>
        </mxCell>
        <mxCell id="Bi_bp-SSH6XVWLjxZuOe-94" value="2: accessApplyInfo()&lt;br&gt;3: statApplyInfo()" style="html=1;verticalAlign=bottom;endArrow=block;edgeStyle=elbowEdgeStyle;elbow=vertical;curved=0;rounded=0;" edge="1" parent="1">
          <mxGeometry width="80" relative="1" as="geometry">
            <mxPoint x="200" y="599" as="sourcePoint" />
            <mxPoint x="280" y="599" as="targetPoint" />
          </mxGeometry>
        </mxCell>
        <mxCell id="Bi_bp-SSH6XVWLjxZuOe-95" value="2.1: showApplyInfo()&lt;br&gt;3.1: showApplyNum()" style="html=1;verticalAlign=bottom;endArrow=block;edgeStyle=elbowEdgeStyle;elbow=horizontal;curved=0;rounded=0;" edge="1" parent="1">
          <mxGeometry width="80" relative="1" as="geometry">
            <mxPoint x="415" y="600" as="sourcePoint" />
            <mxPoint x="485" y="600" as="targetPoint" />
          </mxGeometry>
        </mxCell>
        <mxCell id="Bi_bp-SSH6XVWLjxZuOe-96" value="1: startInterface()" style="html=1;verticalAlign=bottom;endArrow=block;edgeStyle=elbowEdgeStyle;elbow=vertical;curved=0;rounded=0;" edge="1" parent="1">
          <mxGeometry width="80" relative="1" as="geometry">
            <mxPoint x="480" y="670" as="sourcePoint" />
            <mxPoint x="400" y="670" as="targetPoint" />
          </mxGeometry>
        </mxCell>
        <mxCell id="Bi_bp-SSH6XVWLjxZuOe-97" value="2.1.1: getApplyInfo()&lt;br&gt;3.1.1: getApplyNum()" style="text;html=1;align=center;verticalAlign=middle;resizable=0;points=[];autosize=1;strokeColor=none;fillColor=none;" vertex="1" parent="1">
          <mxGeometry x="375" y="690" width="140" height="40" as="geometry" />
        </mxCell>
        <mxCell id="Bi_bp-SSH6XVWLjxZuOe-98" value="" style="endArrow=classic;html=1;rounded=0;" edge="1" parent="1">
          <mxGeometry width="50" height="50" relative="1" as="geometry">
            <mxPoint x="505" y="660" as="sourcePoint" />
            <mxPoint x="505" y="740" as="targetPoint" />
          </mxGeometry>
        </mxCell>
        <mxCell id="Bi_bp-SSH6XVWLjxZuOe-99" value="Delete apply" style="shape=umlFrame;whiteSpace=wrap;html=1;pointerEvents=0;" vertex="1" parent="1">
          <mxGeometry x="30" y="280" width="670" height="240" as="geometry" />
        </mxCell>
        <mxCell id="Bi_bp-SSH6XVWLjxZuOe-102" value="Check apply information" style="shape=umlFrame;whiteSpace=wrap;html=1;pointerEvents=0;" vertex="1" parent="1">
          <mxGeometry x="30" y="-320" width="670" height="250" as="geometry" />
        </mxCell>
        <mxCell id="Bi_bp-SSH6XVWLjxZuOe-103" value="Cancel apply" style="shape=umlFrame;whiteSpace=wrap;html=1;pointerEvents=0;" vertex="1" parent="1">
          <mxGeometry x="30" y="-30" width="670" height="260" as="geometry" />
        </mxCell>
        <mxCell id="Bi_bp-SSH6XVWLjxZuOe-104" value="Apply statistics(normal user)" style="shape=umlFrame;whiteSpace=wrap;html=1;pointerEvents=0;" vertex="1" parent="1">
          <mxGeometry x="30" y="560" width="670" height="250" as="geometry" />
        </mxCell>
        <mxCell id="Bi_bp-SSH6XVWLjxZuOe-105" value="Apply statistics(company user)" style="shape=umlFrame;whiteSpace=wrap;html=1;pointerEvents=0;" vertex="1" parent="1">
          <mxGeometry x="30" y="860" width="670" height="270" as="geometry" />
        </mxCell>
        <mxCell id="Bi_bp-SSH6XVWLjxZuOe-106" value="1: startInterface()" style="html=1;verticalAlign=bottom;endArrow=block;edgeStyle=elbowEdgeStyle;elbow=vertical;curved=0;rounded=0;" edge="1" parent="1">
          <mxGeometry width="80" relative="1" as="geometry">
            <mxPoint x="485" y="980" as="sourcePoint" />
            <mxPoint x="405" y="980" as="targetPoint" />
          </mxGeometry>
        </mxCell>
        <mxCell id="Bi_bp-SSH6XVWLjxZuOe-107" value="2: accessHireInfo()" style="html=1;verticalAlign=bottom;endArrow=block;edgeStyle=elbowEdgeStyle;elbow=vertical;curved=0;rounded=0;" edge="1" parent="1">
          <mxGeometry width="80" relative="1" as="geometry">
            <mxPoint x="200" y="910" as="sourcePoint" />
            <mxPoint x="280" y="910" as="targetPoint" />
          </mxGeometry>
        </mxCell>
        <mxCell id="Bi_bp-SSH6XVWLjxZuOe-108" value="2.1: showApplicantsNum()" style="html=1;verticalAlign=bottom;endArrow=block;edgeStyle=elbowEdgeStyle;elbow=horizontal;curved=0;rounded=0;" edge="1" parent="1">
          <mxGeometry width="80" relative="1" as="geometry">
            <mxPoint x="420" y="910" as="sourcePoint" />
            <mxPoint x="490" y="910" as="targetPoint" />
          </mxGeometry>
        </mxCell>
        <mxCell id="Bi_bp-SSH6XVWLjxZuOe-109" value="" style="endArrow=classic;html=1;rounded=0;" edge="1" parent="1">
          <mxGeometry width="50" height="50" relative="1" as="geometry">
            <mxPoint x="505" y="970" as="sourcePoint" />
            <mxPoint x="505" y="1050" as="targetPoint" />
          </mxGeometry>
        </mxCell>
        <mxCell id="Bi_bp-SSH6XVWLjxZuOe-110" value="2.1.1: getApplicants" style="text;html=1;align=center;verticalAlign=middle;resizable=0;points=[];autosize=1;strokeColor=none;fillColor=none;" vertex="1" parent="1">
          <mxGeometry x="375" y="1005" width="130" height="30" as="geometry" />
        </mxCell>
      </root>
    </mxGraphModel>
  </diagram>
</mxfile>
